<svg class="fill-current text-white" height="512" viewBox="0 0 512 512" width="512" xmlns="http://www.w3.org/2000/svg"><g><path d="m424.339 0h-336.678c-12.975 0-23.532 10.557-23.532 23.532v464.936c0 12.976 10.557 23.532 23.532 23.532h328.662c12.976 0 23.532-10.557 23.532-23.532v-46.451c4.911-4.316 8.016-10.642 8.016-17.678v-400.807c0-12.975-10.557-23.532-23.532-23.532zm8.532 23.532v24.564h-8.532c-13.545 0-24.564-11.02-24.564-24.564v-8.532h24.564c4.704 0 8.532 3.828 8.532 8.532zm-321.678-8.532h33.097v8.532c0 13.545-11.02 24.564-24.565 24.564h-8.532zm-32.064 8.532c0-4.705 3.828-8.532 8.532-8.532h8.532v329.177c0 4.142 3.358 7.5 7.5 7.5s7.5-3.358 7.5-7.5v-281.08h8.532c21.816 0 39.565-17.749 39.565-39.564v-8.533h225.484v8.532c0 21.816 17.749 39.564 39.564 39.564h8.532v321.678h-8.532c-21.816 0-39.564 17.749-39.564 39.564v8.532h-225.483v-8.532c0-21.816-17.749-39.564-39.565-39.564h-8.532v-8.533c0-4.142-3.358-7.5-7.5-7.5s-7.5 3.358-7.5 7.5v56.629h-8.532c-3.008 0-5.886.567-8.532 1.601v-410.939zm345.21 409.339h-24.564v-8.532c0-13.545 11.02-24.564 24.564-24.564h8.532v24.564c0 4.704-3.828 8.532-8.532 8.532zm-313.146 0v-33.097h8.532c13.545 0 24.565 11.02 24.565 24.564v8.532h-33.097zm305.13 64.129h-328.662c-4.705 0-8.532-3.828-8.532-8.532v-32.064c0-4.705 3.828-8.532 8.532-8.532h336.678c.173 0 .344-.002.516-.005v17.07h-321.162c-4.142 0-7.5 3.358-7.5 7.5s3.358 7.5 7.5 7.5h321.162v8.532c0 4.703-3.828 8.531-8.532 8.531z"/><path d="m133.885 369.574c19.912 5.135 35.471 20.694 40.605 40.605.854 3.312 3.841 5.627 7.262 5.627h180.559c3.421 0 6.408-2.315 7.262-5.627 5.135-19.912 20.694-35.471 40.605-40.605 3.312-.854 5.627-3.841 5.627-7.262v-226.554c0-4.142-3.358-7.5-7.5-7.5s-7.5 3.358-7.5 7.5v220.991c-20.635 7.172-36.886 23.423-44.058 44.058h-169.432c-7.172-20.635-23.422-36.886-44.057-44.057v-265.628c20.635-7.171 36.885-23.422 44.057-44.057h169.434c7.172 20.635 23.423 36.886 44.058 44.058v12.571c0 4.142 3.358 7.5 7.5 7.5s7.5-3.358 7.5-7.5v-18.134c0-3.421-2.315-6.408-5.627-7.262-19.912-5.135-35.471-20.694-40.605-40.605-.854-3.312-3.841-5.627-7.262-5.627h-180.56c-3.421 0-6.408 2.315-7.262 5.627-5.135 19.912-20.694 35.471-40.605 40.605-3.312.854-5.627 3.841-5.627 7.262v276.752c-.001 3.42 2.314 6.408 5.626 7.262z"/><path d="m288.965 245.612-16.936 50.792-6.243-18.728c-1.311-3.93-5.558-6.053-9.487-4.744-3.93 1.31-6.053 5.557-4.744 9.487l6.312 18.935c2.068 6.201 7.627 10.208 14.164 10.208s12.096-4.007 14.164-10.209l15.813-47.441 47.442-15.814c6.201-2.067 10.208-7.626 10.208-14.163s-4.007-12.097-10.208-14.165l-47.442-15.813-15.814-47.442c-2.067-6.201-7.627-10.208-14.164-10.208s-12.096 4.007-14.164 10.208l-15.813 47.442-47.442 15.813c-6.202 2.068-10.208 7.627-10.208 14.165 0 6.537 4.007 12.096 10.209 14.163l50.999 17c3.929 1.31 8.177-.814 9.487-4.744 1.31-3.929-.814-8.177-4.744-9.487l-50.792-16.936 50.792-16.93c2.24-.747 3.997-2.504 4.744-4.744l16.936-50.792 16.931 50.792c.747 2.24 2.504 3.997 4.744 4.744l50.792 16.936-50.792 16.931c-2.24.747-3.997 2.505-4.744 4.744z"/></g></svg>