<svg height="512" viewBox="0 0 60 60" width="512" xmlns="http://www.w3.org/2000/svg"><g id="Icons"><path d="m31.93 52.393 11.185 5.174a4.575 4.575 0 0 0 6.479-4.65l-1.433-12.534a4.543 4.543 0 0 1 1.156-3.575l8.494-9.34a4.552 4.552 0 0 0 -2.475-7.526l-12.194-2.487a4.576 4.576 0 0 1 -3.084-2.255l-6.058-10.855a4.588 4.588 0 0 0 -8.006 0l-6.052 10.855a4.576 4.576 0 0 1 -3.084 2.253l-12.194 2.489a4.552 4.552 0 0 0 -2.475 7.526l8.494 9.34a4.543 4.543 0 0 1 1.156 3.575l-1.433 12.534a4.575 4.575 0 0 0 6.479 4.65l11.185-5.174a4.6 4.6 0 0 1 3.86 0z" fill="#f0c419"/><g fill="#f29c1f"><circle cx="11" cy="25.999" r="3"/><circle cx="42" cy="48.999" r="3"/><path d="m57.81 27.469-7.51 8.26a11.005 11.005 0 0 1 -.62-16.94l5.66 1.15a4.556 4.556 0 0 1 2.47 7.53z"/><path d="m23.65 54.439-6.77 3.13a4.57 4.57 0 0 1 -6.47-4.65l1.01-8.88a13.476 13.476 0 0 1 12.23 10.4z"/><path d="m36.45 8.729a7.006 7.006 0 0 1 -12.9 0l2.45-4.38a4.582 4.582 0 0 1 8 0z"/><path d="m26 16h-2a1 1 0 0 0 0 2h2a1 1 0 0 0 0-2z"/><path d="m36 16h-2a1 1 0 0 0 0 2h2a1 1 0 0 0 0-2z"/></g><path d="m42.774 38.1c-2.742 2.07-7.6 4.505-12.146.59a.969.969 0 0 0 -1.256 0c-4.55 3.915-9.4 1.48-12.146-.59a1 1 0 0 1 .607-1.788c2.67-.039 3.619-.988 5.167-2.536 0 0 3-4 7 0 4-4 7 0 7 0 1.548 1.548 2.5 2.5 5.167 2.536a1 1 0 0 1 .607 1.788z" fill="#805333"/><circle cx="24" cy="25" fill="#ecf0f1" r="4"/><circle cx="24" cy="25" fill="#35495e" r="2"/><circle cx="23" cy="24" fill="#fff" r="1"/><circle cx="36" cy="25" fill="#ecf0f1" r="4"/><circle cx="36" cy="25" fill="#35495e" r="2"/><circle cx="35" cy="24" fill="#fff" r="1"/></g></svg>